# xmcd CD database file
#
# Track frame offsets:
#	150
#	22725
#	39362
#	56250
#	68925
#	85212
#	106075
#	126125
#	142350
#	146725
#
# Disc length: 2141 seconds
#
# Revision: 2
# Processed by: cddbd v1.4b41PL1 Copyright (c) Steve Scherf et al.
# Submitted via: Feurio! 1.52 - http://www.feurio.com
#
DISCID=86085b0a
DTITLE=Alexis Korner - me
DYEAR=1900
DGENRE=
TTITLE0=Honky Tonk woman
TTITLE1=Louise
TTITLE2=Hammer and nail
TTITLE3=Santa Fé blues
TTITLE4=How long blues
TTITLE5=Roberta
TTITLE6=Precious land
TTITLE7=Honour of the young man
TTITLE8=and again
TTITLE9=East St. Louis blues
EXTD=
EXTT0=
EXTT1=
EXTT2=
EXTT3=
EXTT4=
EXTT5=
EXTT6=
EXTT7=
EXTT8=
EXTT9=
PLAYORDER=
